<?xml version="1.0" standalone="no"?>
<!DOCTYPE svg PUBLIC "-//W3C//DTD SVG 20010904//EN"
 "http://www.w3.org/TR/2001/REC-SVG-20010904/DTD/svg10.dtd">
<svg version="1.0" xmlns="http://www.w3.org/2000/svg"
 width="500.000000pt" height="369.000000pt" viewBox="0 0 500.000000 369.000000"
 preserveAspectRatio="xMidYMid meet">
<metadata>
Created by potrace 1.15, written by Peter Selinger 2001-2017
</metadata>
<g transform="translate(0.000000,369.000000) scale(0.100000,-0.100000)"
fill="#000000" stroke="none">
<path d="M1555 3620 c-60 -61 -82 -92 -52 -74 8 5 8 2 -2 -9 -16 -20 -26 -23
-15 -4 5 8 2 8 -9 -2 -20 -16 -23 -36 -4 -25 8 5 8 2 -2 -9 -16 -20 -26 -23
-15 -4 5 8 2 8 -9 -2 -19 -15 -23 -36 -5 -25 7 4 8 3 4 -5 -4 -6 -11 -9 -16
-6 -22 14 -103 -174 -141 -324 -8 -33 -13 -41 -20 -30 -5 8 -9 19 -9 24 0 6 5
3 10 -5 7 -11 10 -11 10 -2 0 21 -20 53 -30 47 -5 -3 -12 0 -16 6 -5 8 -3 9 6
4 8 -5 11 -3 8 6 -3 8 -10 14 -15 14 -6 0 -15 4 -20 9 -5 5 -3 6 5 2 6 -4 12
-3 12 2 0 12 -78 84 -170 157 -41 32 -97 79 -124 104 -27 25 -45 40 -41 32 6
-10 2 -12 -14 -6 -13 4 -29 1 -38 -7 -14 -11 -15 -11 -9 0 4 7 18 17 30 22 14
6 16 9 5 9 -8 1 -26 -10 -39 -24 -21 -22 -24 -37 -27 -127 -2 -57 0 -123 5
-148 7 -35 9 -16 6 80 l-3 125 9 -110 c4 -60 15 -141 24 -179 9 -38 14 -71 12
-73 -2 -3 -10 21 -17 51 -7 31 -14 54 -17 51 -18 -18 97 -313 117 -301 5 4 13
1 17 -5 4 -8 3 -9 -4 -5 -18 11 -14 -10 5 -25 11 -10 14 -10 9 -1 -11 18 -1
15 15 -5 10 -11 10 -14 2 -9 -8 4 -13 2 -13 -8 0 -8 -3 -22 -7 -32 -5 -13 -3
-15 8 -9 8 5 6 -1 -5 -13 -10 -12 -41 -29 -70 -38 -63 -21 -90 -37 -138 -83
-21 -19 -38 -32 -38 -28 0 4 -9 3 -19 -2 -14 -8 -22 -7 -32 6 -10 12 -10 15
-1 9 6 -4 12 -3 12 2 0 17 -99 102 -118 102 -23 0 -56 -35 -47 -50 3 -6 1 -9
-5 -8 -14 3 -38 -55 -38 -92 0 -28 2 -23 18 39 6 23 13 41 15 39 2 -2 -2 -28
-10 -58 -8 -29 -17 -84 -21 -122 -4 -37 -10 -68 -15 -68 -13 0 -31 39 -24 51
4 5 -5 42 -18 82 -14 40 -28 85 -32 101 -4 20 -9 26 -14 18 -5 -8 -14 11 -24
48 -18 63 -22 99 -7 65 17 -40 10 10 -16 109 -29 110 -60 186 -77 186 -5 0 -3
-8 6 -17 19 -22 60 -148 54 -165 -4 -9 -6 -8 -6 3 -2 35 -44 145 -64 167 -15
16 -17 22 -6 22 12 0 11 2 -1 10 -23 15 -27 13 -72 -27 -42 -38 -109 -163
-107 -200 0 -16 1 -16 10 2 8 17 9 17 4 -5 -39 -182 -42 -337 -10 -506 17 -85
17 -92 1 -120 -10 -16 -14 -20 -10 -9 4 11 8 34 10 50 2 17 1 21 -2 10 -3 -11
-16 -47 -29 -80 -22 -58 -23 -70 -22 -308 l2 -249 33 -29 c18 -16 38 -29 45
-29 6 0 -3 9 -20 20 -44 26 -42 31 5 10 20 -9 48 -22 62 -28 24 -11 24 -11 -5
-7 -27 5 -27 4 -7 -4 12 -6 22 -17 22 -26 0 -29 49 -112 85 -143 37 -33 75
-48 97 -39 7 3 3 6 -10 6 -31 1 -73 24 -97 52 l-20 24 25 -21 c48 -42 69 -47
174 -43 158 5 224 1 305 -20 42 -11 100 -25 129 -31 62 -12 328 -13 389 -1 36
7 45 5 60 -12 10 -11 12 -17 6 -13 -22 12 -14 -10 9 -30 22 -19 23 -19 8 1
-14 18 -13 19 1 7 18 -14 17 -58 -1 -76 -10 -8 -10 -5 0 14 10 22 9 22 -14 -5
-29 -35 -34 -54 -8 -34 15 11 15 11 4 -1 -7 -8 -16 -15 -20 -15 -4 -1 -50 -44
-102 -96 -52 -53 -128 -121 -168 -153 -76 -60 -93 -86 -91 -139 1 -28 2 -27 8
10 9 54 21 68 14 16 -3 -21 0 -56 5 -76 6 -21 6 -35 1 -32 -5 4 -10 16 -10 28
-1 14 -3 17 -6 6 -6 -22 33 -115 47 -111 6 1 9 -2 5 -7 -8 -13 23 -73 34 -66
5 2 21 -12 37 -32 15 -20 22 -33 16 -29 -7 4 -12 3 -12 -2 0 -15 141 -143 151
-137 4 3 30 -8 56 -24 52 -31 131 -61 164 -61 31 0 95 35 266 147 11 8 24 10
27 5 3 -5 0 -9 -7 -9 -10 0 -163 -95 -177 -110 -10 -12 47 21 102 59 53 36 87
43 105 23 5 -4 2 -5 -4 -1 -20 11 -15 -9 8 -35 11 -13 18 -18 14 -11 -9 17 0
15 16 -5 10 -11 10 -14 2 -9 -19 11 -16 -9 4 -25 15 -12 16 -12 8 1 -5 9 0 8
13 -4 25 -21 31 -36 7 -16 -8 7 -15 8 -15 3 0 -32 279 -259 324 -264 6 -1 50
-3 97 -4 l86 -2 74 55 c106 79 326 307 257 266 -9 -5 -9 -2 1 9 16 20 26 23
15 5 -5 -9 -2 -9 9 1 20 16 23 36 5 25 -9 -5 -9 -2 1 9 16 20 26 23 15 5 -5
-9 -2 -9 9 1 19 15 23 36 5 25 -7 -4 -8 -3 -4 5 4 6 11 9 16 6 12 -7 33 32 25
45 -4 6 -1 9 6 8 6 -2 14 3 17 11 3 9 0 11 -8 6 -9 -5 -11 -4 -6 4 4 6 12 9
17 5 10 -6 129 233 129 257 0 11 -3 11 -11 -1 -8 -11 -9 -9 -4 10 4 14 10 28
14 31 3 4 48 12 98 18 51 6 121 20 155 31 l63 19 35 -33 c63 -60 94 -71 206
-71 94 0 105 2 165 33 55 28 60 29 34 8 -16 -14 -51 -30 -77 -37 -26 -7 -46
-15 -43 -17 10 -11 96 22 129 50 33 27 51 59 24 42 -7 -4 -8 -3 -4 5 4 6 11 9
16 6 5 -3 16 7 24 22 10 21 33 36 83 56 91 37 99 38 115 19 11 -13 11 -14 -1
-8 -9 6 -12 4 -9 -5 3 -8 10 -14 16 -14 5 0 14 -4 19 -9 5 -5 2 -6 -6 -1 -9 5
-12 3 -9 -6 3 -8 10 -13 16 -12 5 1 16 -5 24 -15 12 -15 11 -16 -4 -3 -26 20
-22 -2 4 -25 13 -12 18 -13 13 -4 -5 9 0 8 13 -4 25 -21 31 -36 7 -16 -32 26
-13 -8 23 -41 47 -46 90 -75 122 -83 14 -4 7 2 -15 14 -22 11 -49 30 -60 42
-16 17 -13 16 15 -4 54 -39 103 -51 194 -46 58 3 95 11 131 28 70 33 73 34 46
15 -13 -10 -44 -26 -70 -36 -25 -10 -40 -18 -33 -19 36 -1 152 68 152 91 0 6
-5 7 -12 3 -7 -4 -8 -3 -4 5 4 6 11 9 16 6 5 -3 14 3 19 14 16 28 13 38 -3 15
-10 -12 -8 1 6 41 36 108 34 293 -7 495 -5 22 -4 22 4 5 7 -16 10 -16 10 -4 3
52 -129 366 -148 355 -5 -4 -13 -1 -17 5 -5 8 -3 9 6 4 8 -5 11 -3 8 6 -3 8
-10 14 -16 14 -5 0 -14 4 -19 9 -5 5 -3 6 5 2 6 -4 12 -4 12 1 -1 11 -37 53
-46 53 -4 0 1 -10 12 -22 17 -21 16 -21 -9 1 -28 25 -36 38 -16 25 7 -4 10 -1
7 7 -6 17 -125 109 -141 109 -7 0 4 -10 23 -21 38 -23 95 -69 86 -69 -3 0 -26
15 -50 34 -24 18 -57 36 -72 40 -18 5 -24 10 -16 15 23 14 36 213 23 337 -7
62 -16 125 -22 141 -8 26 -9 26 -4 -7 22 -168 26 -227 20 -314 -4 -54 -11
-110 -16 -125 -5 -17 -6 -9 -2 24 16 122 7 309 -23 465 -4 22 -3 23 5 5 8 -17
10 -18 10 -2 1 9 7 17 14 17 6 1 -1 8 -18 16 -16 8 -22 12 -11 9 115 -33 215
-31 306 4 31 11 85 44 120 71 l65 51 -50 -46 c-27 -25 -77 -59 -110 -76 -33
-16 -49 -27 -35 -23 45 11 114 56 173 112 53 51 80 92 40 61 -13 -10 -13 -8 2
10 17 19 26 22 60 17 58 -7 173 11 219 35 30 16 37 17 27 5 -7 -9 -31 -21 -52
-28 -22 -6 -37 -13 -35 -16 16 -16 156 73 156 99 0 6 -6 7 -13 3 -7 -4 -9 -3
-4 2 5 5 14 9 20 9 5 0 12 6 15 14 3 8 0 11 -7 7 -8 -5 -8 0 -1 19 13 33 13
155 1 155 -6 0 -13 -4 -16 -10 -3 -5 -12 -10 -18 -10 -7 0 -2 8 9 18 20 16 22
27 24 169 l1 152 -25 7 c-30 7 -56 0 -56 -17 0 -8 5 -8 18 1 9 7 -5 -9 -33
-34 -30 -28 -98 -71 -170 -108 -66 -33 -129 -68 -139 -77 -11 -9 -16 -10 -12
-3 12 20 -9 13 -32 -11 -26 -28 -29 -45 -4 -26 15 13 16 12 3 -3 -7 -10 -17
-15 -22 -12 -12 7 -37 -58 -45 -117 -5 -40 -13 -55 -39 -74 -46 -36 -109 -55
-179 -55 -120 0 -334 98 -431 196 -59 59 -130 117 -165 133 -21 10 -22 9 -6
-1 53 -37 54 -44 2 -16 -67 35 -149 58 -214 58 -23 0 -111 -13 -195 -29 -191
-37 -218 -40 -294 -30 -55 6 -193 59 -193 73 0 3 29 -9 65 -25 45 -21 85 -32
128 -34 l62 -4 -61 9 c-72 10 -175 55 -247 107 -123 89 -139 95 -46 20 19 -15
-2 -3 -46 26 -167 113 -251 141 -425 140 -102 -1 -267 -27 -369 -60 -13 -4
-13 -3 -2 5 12 8 11 21 -4 81 -9 40 -19 70 -22 67 -2 -2 0 -21 6 -43 6 -21 11
-45 10 -53 -1 -14 -17 38 -33 105 -5 22 -4 26 4 15 18 -27 11 8 -16 77 -15 38
-34 75 -42 83 -13 13 -14 13 -7 0 6 -11 3 -11 -11 2 -38 33 -78 19 -149 -52z
m109 -73 c37 -27 82 -297 73 -447 -5 -104 -40 -225 -97 -342 l-31 -63 45 49
c86 94 156 278 156 408 0 67 1 68 123 94 183 38 337 36 450 -6 29 -11 112 -53
184 -95 153 -86 221 -116 330 -146 91 -25 154 -23 333 11 229 44 341 18 470
-109 80 -78 139 -167 220 -329 100 -202 126 -351 117 -664 -4 -112 -10 -219
-13 -238 -11 -60 4 -29 31 65 14 49 28 91 30 93 13 13 93 -38 139 -89 181
-201 296 -651 214 -848 l-13 -33 -44 36 c-82 69 -137 81 -161 35 -8 -14 -18
-16 -45 -12 -24 4 -43 0 -62 -13 -15 -9 -41 -18 -58 -18 -26 0 -37 10 -81 73
l-50 74 43 64 c53 79 57 107 11 69 -137 -112 -237 -156 -351 -156 -61 0 -182
21 -195 34 -2 2 13 26 32 54 76 105 137 278 166 471 10 69 18 127 16 128 -1 1
-24 -61 -51 -140 -85 -249 -141 -360 -227 -453 -96 -102 -206 -150 -371 -161
l-97 -6 10 29 c40 118 69 454 55 649 l-8 110 -28 -190 c-96 -656 -260 -1031
-572 -1312 -32 -29 -61 -53 -65 -53 -4 0 -18 26 -31 56 -14 31 -42 84 -64 117
l-39 61 32 66 c56 116 40 178 -44 165 -34 -5 -38 -4 -31 12 30 73 35 101 26
127 -19 48 -94 60 -163 25 -38 -19 -40 -20 -33 -2 5 10 9 34 9 53 1 29 -3 36
-21 38 -13 2 -23 5 -23 7 0 3 32 53 71 112 116 176 197 359 213 483 6 43 4 41
-38 -45 l-44 -90 -1 76 c-1 85 -17 182 -35 218 -11 20 -14 -12 -20 -194 -7
-242 -3 -226 -95 -363 -55 -83 -56 -84 -91 -78 -80 13 -233 89 -330 164 -65
50 -180 164 -180 178 0 6 20 17 44 23 72 18 236 106 306 164 137 113 222 247
264 412 33 133 32 148 -3 58 -131 -332 -419 -551 -798 -608 -162 -25 -287 -18
-473 25 -47 10 -128 22 -180 25 -209 13 -219 16 -245 79 l-16 37 34 -6 c48 -9
207 12 271 35 49 19 106 63 95 75 -3 2 -24 -5 -46 -16 -60 -29 -204 -52 -288
-46 -86 7 -195 40 -219 66 -12 13 -23 56 -33 123 -13 85 -14 119 -4 196 6 51
18 109 27 130 l15 37 18 -41 c36 -79 114 -115 204 -93 89 21 177 129 177 218
0 18 3 20 19 11 33 -17 103 -11 146 13 45 26 97 93 97 128 1 13 -5 38 -12 55
-12 29 -11 34 19 77 37 55 96 98 166 121 64 22 71 29 105 96 46 90 126 148
227 165 l42 7 11 -44 c19 -73 75 -196 86 -186 1 2 -6 35 -17 73 -12 39 -23
117 -26 175 -9 172 27 308 121 455 36 56 132 165 146 165 3 0 14 -6 24 -13z
m-651 -246 c57 -50 117 -110 135 -134 54 -76 97 -197 69 -197 -25 0 -123 -52
-153 -82 l-32 -30 -30 45 c-68 97 -115 239 -128 381 -7 82 -3 106 21 106 9 0
62 -40 118 -89z m3901 -198 c-7 -93 -26 -182 -53 -252 -22 -58 -13 -67 17 -18
18 28 82 77 82 62 0 -3 -9 -24 -20 -45 -34 -67 -140 -121 -234 -120 l-41 1 47
25 c59 30 111 82 139 135 28 57 17 60 -20 6 -48 -70 -104 -112 -182 -137 -58
-19 -72 -28 -85 -55 -33 -69 -123 -125 -236 -146 -77 -14 -159 -4 -248 30 -52
20 -58 26 -102 104 -26 45 -45 83 -43 85 2 2 20 -5 42 -16 79 -41 184 -66 273
-65 116 0 179 25 268 106 37 34 90 82 117 106 52 46 38 40 -40 -17 l-45 -33 0
28 c1 80 69 155 204 223 70 36 76 37 46 13 -19 -15 -48 -41 -65 -56 -32 -31
-29 -29 118 75 28 21 56 38 60 38 4 0 5 -35 1 -77z m-4650 -298 c45 -207 84
-328 147 -451 41 -80 50 -106 46 -136 -13 -102 -147 -171 -227 -116 -44 30
-72 79 -112 198 -30 91 -32 102 -32 260 -1 176 8 231 51 330 32 72 62 105 80
87 7 -7 29 -85 47 -172z m342 -212 c29 -31 104 -177 104 -202 0 -24 -48 -66
-91 -80 -43 -14 -84 -2 -93 27 -9 27 11 224 25 256 15 33 24 33 55 -1z m869
-1490 c98 -93 172 -139 278 -174 l79 -26 -33 -39 c-18 -21 -59 -66 -91 -99
-32 -34 -62 -76 -68 -94 -9 -34 -1 -101 20 -156 9 -25 8 -31 -7 -43 -28 -22
-163 -85 -169 -79 -3 2 -20 36 -38 74 l-33 69 24 34 c38 54 83 152 83 182 0
59 -33 84 -90 68 -23 -7 -30 -6 -26 3 49 118 43 158 -24 178 -36 11 -47 10
-91 -8 -55 -24 -62 -16 -26 34 32 44 121 153 126 153 2 0 40 -35 86 -77z m-79
-138 c21 -33 13 -66 -41 -156 -75 -125 -63 -121 -144 -48 -39 35 -71 67 -71
72 0 15 82 97 128 127 58 38 105 40 128 5z m2953 -76 c33 -29 58 -56 54 -61
-6 -11 -93 -52 -98 -46 -57 57 -79 120 -53 146 20 20 33 14 97 -39z m-2403
-24 c7 -17 -34 -106 -69 -148 l-23 -29 -37 18 c-23 11 -36 23 -33 31 3 7 29
42 57 78 53 66 92 84 105 50z m-829 -90 c26 -16 83 -63 125 -107 88 -89 158
-214 158 -281 0 -34 -2 -37 -28 -37 -117 0 -347 239 -384 398 -9 43 -9 55 1
61 19 12 73 -3 128 -34z m363 20 c10 -12 10 -24 2 -53 -12 -40 -87 -152 -102
-152 -5 0 -24 19 -44 41 l-35 42 29 37 c43 54 98 100 119 100 10 0 24 -7 31
-15z m616 -10 c19 -19 23 -31 18 -52 -7 -30 -55 -125 -79 -157 -15 -19 -16
-19 -53 16 -20 19 -54 48 -76 64 l-39 28 49 44 c47 42 115 81 142 82 7 0 24
-11 38 -25z m-249 -156 c75 -44 216 -185 276 -276 60 -90 97 -180 97 -233 0
-37 -2 -40 -29 -40 -45 0 -160 64 -233 130 -85 77 -178 199 -222 293 -35 75
-52 140 -40 158 12 20 92 3 151 -32z"/>
<path d="M1581 3360 c-41 -56 -64 -100 -96 -185 -36 -97 -31 -104 8 -10 30 74
85 166 106 180 12 7 37 -106 51 -223 18 -157 -16 -296 -82 -344 -39 -27 -74
-16 -102 32 -18 29 -21 51 -20 135 0 72 -2 89 -7 60 -18 -96 -5 -174 37 -225
65 -77 158 5 184 161 19 121 7 283 -33 419 l-13 45 -33 -45z"/>
<path d="M1142 2609 c-44 -22 -85 -72 -96 -119 l-7 -25 18 25 c10 14 29 36 43
49 87 83 234 62 331 -47 39 -44 41 -45 35 -18 -20 80 -139 156 -246 156 -19 0
-54 -10 -78 -21z"/>
<path d="M1165 2476 c-37 -16 -82 -68 -91 -103 -10 -40 4 -152 23 -186 32 -54
66 -71 149 -75 85 -5 123 7 158 49 30 36 42 118 26 177 -30 112 -165 182 -265
138z m177 -46 c14 -11 28 -32 31 -46 6 -35 -10 -82 -33 -94 -82 -44 -152 69
-85 135 29 30 54 32 87 5z"/>
<path d="M675 2147 c-58 -23 -103 -57 -143 -110 -66 -86 -86 -134 -86 -205 -1
-59 1 -66 32 -93 18 -16 42 -29 55 -29 19 1 17 3 -9 14 -100 44 -84 178 36
309 87 96 173 121 231 69 25 -23 31 -35 31 -72 1 -25 -2 -56 -7 -70 -5 -17 -4
-22 3 -15 18 19 33 84 27 118 -14 71 -99 113 -170 84z"/>
<path d="M630 2011 c-59 -31 -93 -83 -98 -149 -5 -70 21 -112 69 -112 28 0 89
24 89 36 0 2 -9 0 -20 -6 -35 -19 -83 -8 -99 21 -8 14 -11 34 -7 44 6 16 8 16
24 3 28 -25 58 -30 95 -15 37 16 74 57 83 94 13 49 -31 103 -84 103 -10 0 -33
-8 -52 -19z"/>
</g>
</svg>
