<?xml version="1.0" encoding="utf-8"?>
<!-- Generator: Adobe Illustrator 16.0.0, SVG Export Plug-In . SVG Version: 6.00 Build 0)  -->
<!DOCTYPE svg PUBLIC "-//W3C//DTD SVG 1.1//EN" "http://www.w3.org/Graphics/SVG/1.1/DTD/svg11.dtd">
<svg version="1.1" id="Layer_1" xmlns="http://www.w3.org/2000/svg" xmlns:xlink="http://www.w3.org/1999/xlink" x="0px" y="0px"
	 width="123.5px" height="133.5px" viewBox="317 0 123.5 133.5" enable-background="new 317 0 123.5 133.5" xml:space="preserve">
<path fill="#F16334" d="M425.1,26.6L391.1,7c-3.399-2-7.8-3-12.399-3c-4.601,0-9,1.1-12.4,3l-34,19.6
	c-7,4.1-12.399,13.3-12.399,21.4v39.3c0,8.101,5.3,17.3,12.399,21.4l34,19.6c3.4,2,7.8,3,12.4,3c4.6,0,9-1.1,12.399-3l34-19.6
	c7-4.101,12.4-13.3,12.4-21.4V48C437.4,39.8,432.1,30.6,425.1,26.6z M431.1,87.2c0,5.8-4.1,13-9.199,15.899l-34,19.601
	c-2.5,1.5-5.9,2.2-9.2,2.2s-6.7-0.7-9.2-2.2l-34-19.601c-5-2.899-9.2-10.1-9.2-15.899V48c0-5.8,4.101-13,9.2-15.9l34-19.6
	c2.5-1.5,5.9-2.2,9.2-2.2s6.7,0.7,9.2,2.2l34,19.6c5,2.9,9.199,10.1,9.199,15.9V87.2z"/>
<path fill="#F16334" d="M378.7,115.6c-0.601,0-1.2,0-1.9-0.1l0.2-2c1.5,0.1,3,0.1,4.5-0.2l0.3,2
	C380.8,115.5,379.8,115.6,378.7,115.6z M371.9,114.3c-0.4-0.2-0.9-0.399-1.2-0.6l-3-1.8l1-1.801l3,1.801c0.3,0.199,0.7,0.399,1,0.5
	L371.9,114.3z M386.7,113.7l-0.3-0.7l-0.601-1.1l0,0l0,0l4.101-2.4l1,1.8L386.7,113.7z M363.5,109.5l-4.1-2.4l1-1.8l4.1,2.4
	L363.5,109.5z M395,108.9l-1-1.801l4.1-2.399l1,1.8L395,108.9z M355.2,104.8L351.1,102.4l1-1.801l4.101,2.4L355.2,104.8z
	 M403.3,104.1l-1-1.8L406.4,99.9l1,1.8L403.3,104.1z M346.9,100l-4.101-2.4l1-1.8l4.101,2.4L346.9,100z M411.6,99.4l-1-1.801l3-1.8
	c0.301-0.2,0.601-0.399,1-0.6l1.2,1.7c-0.399,0.3-0.8,0.5-1.2,0.8L411.6,99.4z M338.9,94.2c-1-1.3-2-2.7-2.7-4.3L338.1,89
	c0.601,1.4,1.4,2.7,2.4,3.8L338.9,94.2z M419.3,93.2l-1.7-1.2c0.9-1.2,1.601-2.6,2.101-4l1.899,0.7
	C421.1,90.3,420.2,91.8,419.3,93.2z M334.9,85.1C334.8,84.6,334.8,84.2,334.8,83.7v-3.5h2.101v3.5c0,0.399,0,0.8,0.1,1.2L334.9,85.1
	z M420.6,83.7v-4.8h2.101v4.8H420.6z M336.8,75.4h-2.1V70.6h2.1V75.4z M422.6,74.2h-2.1v-4.8h2.1V74.2z M336.8,65.8h-2.1V61h2.1
	V65.8z M422.6,64.6h-2.1v-4.8h2.1V64.6z M336.8,56.3h-2.1v-4.8h2.1V56.3z M422.6,55h-2.1v-3.5c0-0.4,0-0.8-0.1-1.1l2-0.2
	c0.1,0.5,0.1,0.9,0.1,1.4V55H422.6z M337.7,47.2l-1.9-0.7c0.601-1.5,1.4-3.1,2.4-4.4l1.7,1.2C338.9,44.4,338.2,45.8,337.7,47.2z
	 M419.3,46.1c-0.6-1.4-1.399-2.7-2.399-3.8l1.6-1.3c1,1.3,2,2.7,2.7,4.3L419.3,46.1z M342.9,40l-1.2-1.6c0.399-0.3,0.8-0.5,1.2-0.8
	l3-1.8l1,1.8l-3,1.8C343.5,39.6,343.2,39.8,342.9,40z M413.6,39.4L409.4,37l1-1.8l4.1,2.4L413.6,39.4z M351,35.2l-1-1.8l4.1-2.4
	l1,1.8L351,35.2z M405.3,34.6l-4.1-2.4l1-1.8l4.1,2.4L405.3,34.6z M359.3,30.5l-1-1.8l4.101-2.4l1,1.8L359.3,30.5z M397,29.8
	l-4.1-2.4l1-1.8L398,28L397,29.8z M367.6,25.7l-1-1.8l4.101-2.4l0.5,0.9l0.6,0.9l-0.1,0.1l0,0l0,0L367.6,25.7z M388.7,25l-3-1.7
	c-0.3-0.2-0.7-0.4-1-0.5l0.8-1.9c0.4,0.2,0.9,0.4,1.3,0.6l3,1.7L388.7,25z M375.9,21.9l-0.301-2c1.601-0.3,3.4-0.3,5-0.2l-0.199,2
	C378.9,21.6,377.3,21.6,375.9,21.9z"/>
<path fill="#F16334" d="M395.6,64.5l-22.5-13.2c-1.6-1.1-3.199-1.2-4.5-0.5c-2.3,1.2-2.3,4.4-2.199,7l0.199,20.8
	c0,2.7,0.101,5.801,2.4,7.2c1.4,0.8,3.1,0.9,4.6-0.3L395.7,71.8C398.4,69.7,398.4,66.4,395.6,64.5z"/>
</svg>
