<?xml version="1.0" encoding="utf-8"?>
<!-- Generator: Adobe Illustrator 16.0.0, SVG Export Plug-In . SVG Version: 6.00 Build 0)  -->
<!DOCTYPE svg PUBLIC "-//W3C//DTD SVG 1.1//EN" "http://www.w3.org/Graphics/SVG/1.1/DTD/svg11.dtd">
<svg version="1.1" id="Layer_1" xmlns="http://www.w3.org/2000/svg" xmlns:xlink="http://www.w3.org/1999/xlink" x="0px" y="0px"
	 width="440.5px" height="133.5px" viewBox="0 0 440.5 133.5" style="enable-background:new 0 0 440.5 133.5;" xml:space="preserve"
	>
<path style="fill:#f16334" d="M425.1,26.6l-34-19.6c-3.4-2-7.8-3-12.4-3s-9,1.1-12.4,3l-34,19.6c-7,4.1-12.4,13.3-12.4,21.4v39.3
	c0,8.1,5.3,17.3,12.4,21.4l34,19.6c3.4,2,7.8,3,12.4,3s9-1.1,12.4-3l34-19.6c7-4.1,12.4-13.3,12.4-21.4V48
	C437.4,39.8,432.1,30.6,425.1,26.6z M431.1,87.2c0,5.8-4.1,13-9.2,15.9l-34,19.6c-2.5,1.5-5.9,2.2-9.2,2.2c-3.3,0-6.7-0.7-9.2-2.2
	l-34-19.6c-5-2.9-9.2-10.1-9.2-15.9V48c0-5.8,4.1-13,9.2-15.9l34-19.6c2.5-1.5,5.9-2.2,9.2-2.2c3.3,0,6.7,0.7,9.2,2.2l34,19.6
	c5,2.9,9.2,10.1,9.2,15.9V87.2z"/>
<path style="fill:#f16334" d="M378.7,115.6c-0.6,0-1.2,0-1.9-0.1l0.2-2c1.5,0.1,3,0.1,4.5-0.2l0.3,2C380.8,115.5,379.8,115.6,378.7,115.6z M371.9,114.3
	c-0.4-0.2-0.9-0.4-1.2-0.6l-3-1.8l1-1.8l3,1.8c0.3,0.2,0.7,0.4,1,0.5L371.9,114.3z M386.7,113.7l-0.3-0.7l-0.6-1.1l0,0v0l4.1-2.4
	l1,1.8L386.7,113.7z M363.5,109.5l-4.1-2.4l1-1.8l4.1,2.4L363.5,109.5z M395,108.9l-1-1.8l4.1-2.4l1,1.8L395,108.9z M355.2,104.8
	l-4.1-2.4l1-1.8l4.1,2.4L355.2,104.8z M403.3,104.1l-1-1.8l4.1-2.4l1,1.8L403.3,104.1z M346.9,100l-4.1-2.4l1-1.8l4.1,2.4L346.9,100
	z M411.6,99.4l-1-1.8l3-1.8c0.3-0.2,0.6-0.4,1-0.6l1.2,1.7c-0.4,0.3-0.8,0.5-1.2,0.8L411.6,99.4z M338.9,94.2c-1-1.3-2-2.7-2.7-4.3
	l1.9-0.9c0.6,1.4,1.4,2.7,2.4,3.8L338.9,94.2z M419.3,93.2l-1.7-1.2c0.9-1.2,1.6-2.6,2.1-4l1.9,0.7
	C421.1,90.3,420.2,91.8,419.3,93.2z M334.9,85.1c-0.1-0.5-0.1-0.9-0.1-1.4v-3.5h2.1v3.5c0,0.4,0,0.8,0.1,1.2L334.9,85.1z
	 M420.6,83.7v-4.8h2.1v4.8L420.6,83.7z M336.8,75.4h-2.1v-4.8h2.1V75.4z M422.6,74.2h-2.1v-4.8h2.1V74.2z M336.8,65.8h-2.1v-4.8h2.1
	V65.8z M422.6,64.6h-2.1v-4.8h2.1V64.6z M336.8,56.3h-2.1v-4.8l2.1,0V56.3z M422.6,55h-2.1v-3.5c0-0.4,0-0.8-0.1-1.1l2-0.2
	c0.1,0.5,0.1,0.9,0.1,1.4V55z M337.7,47.2l-1.9-0.7c0.6-1.5,1.4-3.1,2.4-4.4l1.7,1.2C338.9,44.4,338.2,45.8,337.7,47.2z M419.3,46.1
	c-0.6-1.4-1.4-2.7-2.4-3.8l1.6-1.3c1,1.3,2,2.7,2.7,4.3L419.3,46.1z M342.9,40l-1.2-1.6c0.4-0.3,0.8-0.5,1.2-0.8l3-1.8l1,1.8l-3,1.8
	C343.5,39.6,343.2,39.8,342.9,40z M413.6,39.4l-4.2-2.4l1-1.8l4.1,2.4L413.6,39.4z M351,35.2l-1-1.8l4.1-2.4l1,1.8L351,35.2z
	 M405.3,34.6l-4.1-2.4l1-1.8l4.1,2.4L405.3,34.6z M359.3,30.5l-1-1.8l4.1-2.4l1,1.8L359.3,30.5z M397,29.8l-4.1-2.4l1-1.8L398,28
	L397,29.8z M367.6,25.7l-1-1.8l4.1-2.4l0.5,0.9l0.6,0.9l-0.1,0.1l0,0l0,0L367.6,25.7z M388.7,25l-3-1.7c-0.3-0.2-0.7-0.4-1-0.5
	l0.8-1.9c0.4,0.2,0.9,0.4,1.3,0.6l3,1.7L388.7,25z M375.9,21.9l-0.3-2c1.6-0.3,3.4-0.3,5-0.2l-0.2,2
	C378.9,21.6,377.3,21.6,375.9,21.9z"/>
<path style="fill:#f16334;fill-rule:evenodd;clip-rule:evenodd;" d="M395.6,64.5l-22.5-13.2c-1.6-1.1-3.2-1.2-4.5-0.5c-2.3,1.2-2.3,4.4-2.2,7
	l0.2,20.8c0,2.7,0.1,5.8,2.4,7.2c1.4,0.8,3.1,0.9,4.6-0.3l22.1-13.7C398.4,69.7,398.4,66.4,395.6,64.5z"/>
<g>
	<path style="fill:#51555b" d="M46.6,92.6h6.9v11.3h-6.9v7.5c0,4.8-1.7,8.9-5.1,12.2c-3.4,3.4-7.4,5.1-12.1,5.1H18.4v-11.3h6.3c1.8,0,3.1-0.8,4.2-2.4
		c0.5-0.7,0.8-1.4,1-2.3c0.2-0.8,0.3-1.7,0.3-2.7v-6.1H19.1c-4.7,0-8.7-1.7-11.9-5.1c-3.4-3.4-5.1-7.4-5.1-12.2V62.3
		c0-4.8,1.7-8.9,5.1-12.2c3.3-3.4,7.3-5.1,12.1-5.1h27.4V92.6z M30.2,56.3h-3.1c-5.7,0-8.6,2.5-8.6,7.4v21.7c0,4.8,2.6,7.2,7.8,7.2
		h3.9V56.3z"/>
	<path style="fill:#51555b" d="M106.2,91.1c1.2,1,3.2,1.5,6.1,1.5h1.2v11.3h-3.4c-2.4,0-4.7-0.5-6.9-1.4c-0.8,2.1-2.1,4.1-3.9,6
		c-3.4,3.4-7.4,5.1-12.1,5.1H77.1c-4.7,0-8.7-1.7-12-5.1c-1.9-1.9-3.1-3.9-3.9-6c-2.3,0.9-4.6,1.3-6.9,1.4h-2.8V92.6h1
		c2.4,0,4.2-0.5,5.5-1.5c1.2-1,1.8-2.9,1.8-5.6V62.2c0-4.8,1.7-8.8,5-12.2c3.3-3.4,7.3-5.1,12-5.1h10.4c4.6,0,8.7,1.7,12.1,5.1
		c3.4,3.5,5.1,7.5,5.1,12.2v23.2C104.4,88.2,105,90,106.2,91.1z M88,63.7c0-4.9-2-7.4-5.9-7.4s-5.9,2.5-5.9,7.4v31.3
		c0,5,2,7.5,5.9,7.5s5.9-2.5,5.9-7.5V63.7z"/>
	<path style="fill:#51555b" d="M146,44.9v41.7c0,4.6-1.7,8.7-5,12.1c-3.3,3.4-7.3,5.1-12,5.2h-17.5V92.6h10.3c2.8,0,4.9-0.5,6.1-1.5
		c1.2-1.1,1.8-3,1.8-5.7V44.9H146z M120.8,113.7c1,0,1.9,0.2,2.7,0.6c0.9,0.4,1.6,0.9,2.2,1.6c0.6,0.7,1.1,1.5,1.5,2.5
		c0.4,0.9,0.5,1.9,0.5,3c0,1-0.2,2-0.5,2.9c-0.4,0.9-0.9,1.7-1.5,2.4c-0.6,0.7-1.4,1.2-2.2,1.6c-0.9,0.4-1.8,0.6-2.7,0.6
		c-1,0-2-0.2-2.8-0.6c-0.9-0.4-1.6-0.9-2.3-1.6c-0.7-0.7-1.2-1.5-1.5-2.4c-0.4-0.9-0.5-1.9-0.5-2.9c0-2.2,0.7-4,2-5.5
		C117.1,114.4,118.8,113.7,120.8,113.7z M130.2,121.4c0-2.2,0.7-4,2.1-5.5c1.4-1.5,3.1-2.2,5.1-2.2c2,0,3.7,0.7,5.1,2.2
		c1.4,1.5,2,3.3,2,5.5c0,1-0.2,2-0.5,2.9c-0.4,0.9-0.9,1.7-1.5,2.4c-0.6,0.7-1.4,1.2-2.3,1.6c-0.9,0.4-1.8,0.6-2.8,0.6
		s-1.9-0.2-2.8-0.6c-0.9-0.4-1.6-0.9-2.3-1.6c-0.7-0.7-1.2-1.5-1.5-2.4C130.4,123.4,130.2,122.4,130.2,121.4z"/>
	<path style="fill:#51555b" d="M200.3,111.4c0,4.8-1.7,8.9-5.1,12.2c-3.4,3.4-7.4,5.1-12.1,5.1h-11.1v-11.3h6.3c1.8,0,3.1-0.8,4.2-2.4
		c0.5-0.7,0.8-1.4,1-2.3c0.2-0.8,0.3-1.7,0.3-2.7v-6.1h-11.1c-4.7,0-8.7-1.7-11.9-5.1c-3.4-3.4-5.1-7.4-5.1-12.2V62.3
		c0-4.8,1.7-8.9,5.1-12.2c3.3-3.4,7.3-5.1,12.1-5.1h27.4V111.4z M183.9,56.3h-3.1c-5.7,0-8.6,2.5-8.6,7.4v21.7
		c0,4.8,2.6,7.2,7.8,7.2h3.9V56.3z"/>
	<path style="fill:#51555b" d="M227.1,14.9v83.3c0,2.8,0.6,4.8,1.9,5.9c1.3,1.1,3.2,1.6,5.7,1.6h1.5v11.8h-8.5c-4.9-0.1-9-1.9-12.5-5.4
		c-3.5-3.6-5.2-7.7-5.2-12.6V14.9H227.1z"/>
	<path style="fill:#51555b" d="M305.2,14.9L264,56.2H287c4.9,0,9.1,1.8,12.6,5.3c3.5,3.5,5.3,7.8,5.3,12.8v25.2c0,5-1.8,9.2-5.3,12.8
		c-3.5,3.6-7.6,5.3-12.6,5.3h-53v-11.8h47.6c4.1,0,6.1-2.6,6.1-7.8V75.6c0-5.1-2-7.6-6.1-7.6h-38.5v-12l41-41H305.2z"/>
</g>
</svg>
